<?xml version="1.0" standalone="no"?>
<!DOCTYPE svg PUBLIC "-//W3C//DTD SVG 20010904//EN"
 "http://www.w3.org/TR/2001/REC-SVG-20010904/DTD/svg10.dtd">
<svg version="1.0" xmlns="http://www.w3.org/2000/svg"
 width="500.000000pt" height="500.000000pt" viewBox="0 0 500.000000 500.000000"
 preserveAspectRatio="xMidYMid meet">

<g transform="translate(0.000000,500.000000) scale(0.100000,-0.100000)"
fill="#000000" stroke="none">
<path d="M0 2500 l0 -2500 2500 0 2500 0 0 2500 0 2500 -2500 0 -2500 0 0
-2500z m2628 1300 c195 -21 315 -55 479 -137 126 -62 152 -83 107 -84 -123 -2
-267 -19 -319 -37 l-59 -20 -59 29 c-196 99 -391 134 -657 118 -80 -5 -153
-12 -162 -15 -13 -4 -18 -16 -18 -45 0 -35 -3 -39 -25 -39 -35 0 -122 -34
-189 -75 -32 -19 -61 -35 -63 -35 -3 0 -4 35 -2 78 3 48 0 76 -6 75 -51 -8
-265 -14 -264 -7 0 5 63 50 139 99 l139 90 253 -2 c139 -2 294 1 343 6 129 12
256 12 363 1z m-363 -315 c-16 -14 -56 -39 -88 -56 -32 -17 -57 -34 -55 -39 2
-4 109 -183 238 -398 l234 -391 27 43 c116 186 269 477 317 604 18 46 32 86
32 88 0 6 -98 4 -172 -5 -38 -4 -68 -5 -68 -3 0 6 24 24 85 66 91 61 152 77
330 86 88 5 176 12 195 15 l35 7 -25 -21 c-28 -24 -196 -111 -214 -111 -6 0
-46 -71 -88 -158 -97 -198 -230 -423 -342 -575 l-86 -118 0 -93 c0 -51 -3
-114 -6 -140 l-7 -46 -104 0 -105 0 3 88 3 87 -142 243 c-170 290 -309 521
-369 614 l-44 69 -52 -7 c-29 -3 -72 -10 -97 -14 -25 -5 -46 -7 -48 -5 -8 8
117 97 177 126 60 30 76 33 206 40 77 5 160 13 185 18 71 14 77 12 45 -14z
m1195 -127 c45 -70 97 -195 121 -293 25 -101 35 -313 21 -421 -14 -99 -60
-246 -106 -334 l-34 -65 -112 -3 c-105 -2 -112 -1 -105 15 25 61 57 203 65
296 20 208 -18 417 -105 585 -42 82 -43 86 -28 116 11 23 32 39 81 63 37 17
87 45 112 62 25 17 47 31 50 31 3 0 21 -24 40 -52z m-1593 -224 l62 -99 0
-171 c1 -94 -2 -273 -6 -397 l-6 -227 -139 0 -138 0 5 288 c3 158 8 378 11
489 l6 202 62 9 c33 5 65 8 71 7 5 -1 37 -46 72 -101z m-330 -979 c61 -70 -8
-175 -116 -175 l-40 0 -3 101 c-2 55 -1 103 2 106 3 3 34 3 70 0 54 -4 68 -9
87 -32z m126 28 c-17 -6 -18 -183 -2 -183 5 0 7 -4 4 -10 -3 -5 -16 -10 -28
-10 -21 0 -22 3 -20 102 1 57 2 104 3 106 0 1 12 2 28 1 15 0 21 -3 15 -6z
m106 -40 c-4 -27 -8 -69 -8 -95 l-1 -48 41 0 c24 0 38 -4 34 -10 -3 -5 -31
-10 -61 -10 -51 0 -54 1 -44 19 13 26 13 171 -1 171 -5 0 -7 5 -4 10 3 6 16
10 29 10 22 0 22 -2 15 -47z m164 15 c-10 -122 -9 -158 4 -158 8 0 11 -4 8
-10 -3 -5 -16 -10 -28 -10 -21 0 -22 3 -19 95 3 75 1 95 -10 95 -19 0 12 20
32 20 12 0 15 -9 13 -32z m227 17 c-3 -5 -26 -9 -51 -7 -40 3 -49 0 -68 -24
-49 -62 -8 -148 67 -142 34 3 37 6 40 36 2 19 -1 32 -8 32 -6 0 -8 5 -5 10 3
6 15 10 26 10 15 0 19 -7 19 -34 0 -74 -103 -104 -161 -47 -52 52 -30 134 45
167 35 15 104 15 96 -1z m195 5 c-3 -5 -24 -10 -46 -10 -38 0 -39 -1 -39 -35
0 -33 2 -35 36 -35 21 0 33 -4 29 -10 -3 -5 -19 -10 -36 -10 -28 0 -29 -2 -29
-46 l0 -46 34 4 c19 2 32 0 30 -4 -3 -4 -25 -8 -50 -8 l-44 0 -1 48 c0 26 -1
71 -2 100 -1 28 3 54 8 56 22 9 116 6 110 -4z m90 -23 c8 -18 38 -55 65 -82
l50 -49 0 72 c0 51 -4 72 -12 72 -15 0 11 20 27 20 12 0 5 -178 -8 -197 -5 -9
-28 9 -73 55 l-65 67 3 -68 c2 -54 0 -67 -12 -67 -12 0 -15 15 -12 82 2 83 8
128 17 128 2 0 11 -15 20 -33z m360 23 c-3 -5 -21 -10 -39 -10 -32 0 -34 -2
-40 -46 -9 -70 -7 -124 5 -124 5 0 7 -4 4 -10 -3 -5 -17 -10 -31 -10 -22 0
-23 2 -14 20 6 11 10 53 8 93 l-3 72 -37 -3 c-36 -3 -52 11 -25 21 24 10 178
7 172 -3z m170 0 c-3 -5 5 -29 19 -51 l24 -42 21 42 c15 29 18 41 9 41 -9 0
-8 3 2 10 8 5 24 10 35 10 17 -1 18 -2 5 -13 -9 -7 -28 -33 -43 -59 -29 -50
-37 -122 -14 -131 6 -3 0 -6 -15 -6 -27 -1 -28 1 -28 47 0 37 -7 59 -34 99
-34 52 -33 60 7 62 10 1 15 -3 12 -9z m208 -22 c-10 -122 -9 -158 4 -158 8 0
11 -4 8 -10 -3 -5 -16 -10 -28 -10 -21 0 -22 3 -19 95 3 75 1 95 -10 95 -19 0
12 20 32 20 12 0 15 -9 13 -32z m187 22 c0 -5 -18 -10 -40 -10 -39 0 -40 -1
-40 -35 0 -33 2 -35 36 -35 21 0 33 -4 29 -10 -3 -5 -19 -10 -35 -10 -26 0
-28 -3 -32 -46 l-3 -46 37 4 c20 2 34 0 32 -4 -3 -5 -26 -8 -52 -8 l-47 0 0
97 c0 54 5 101 10 105 15 11 105 9 105 -2z m103 3 c-9 -3 -13 -32 -13 -94 l0
-89 41 0 c24 0 38 -4 34 -10 -3 -5 -30 -10 -58 -10 l-52 0 2 102 c1 57 2 104
3 106 0 1 12 2 28 1 15 0 21 -3 15 -6z m274 -28 c61 -70 -8 -175 -116 -175
l-40 0 -3 101 c-2 55 -1 103 2 106 3 3 34 3 70 0 54 -4 68 -9 87 -32z m-1857
-287 c0 -24 -51 -123 -78 -150 l-26 -28 55 -1 c30 -1 124 -4 209 -8 l154 -6
-78 -65 -79 -65 174 -5 174 -5 -85 -13 c-101 -16 -780 -30 -780 -16 0 5 11 19
25 32 36 34 64 122 77 238 l11 104 124 0 c92 0 123 -3 123 -12z m711 0 c2 -26
-3 -64 -12 -80 -7 -14 -5 -19 14 -23 26 -7 282 10 313 21 39 13 -24 -26 -98
-61 -109 -52 -213 -75 -367 -82 l-134 -6 26 35 c24 31 45 118 47 196 0 9 28
12 105 12 77 0 105 -3 106 -12z m529 7 c0 -6 -115 -92 -142 -106 -14 -8 -21
-2 -38 30 -25 50 -25 47 8 65 25 14 172 23 172 11z"/>
<path d="M1410 2085 l0 -85 39 0 c31 0 44 6 60 26 47 60 10 144 -64 144 l-35
0 0 -85z"/>
<path d="M3620 2085 l0 -85 39 0 c31 0 44 6 60 26 47 60 10 144 -64 144 l-35
0 0 -85z"/>
</g>
</svg>
